<svg width="26px" height="31px" viewBox="0 0 26 31" version="1.1" xmlns="http://www.w3.org/2000/svg">
  <desc>Drupal Icon</desc>
  <path d="M12.95.03c.37.86.78 1.59 1.3 2.27 1.12 1.5 2.62 2.59 4.1 3.68 1.4 1.01 2.8 2 3.97 3.28a12.55 12.55 0 0 1 3.41 7.5c.4 4.27-1 7.89-4.1 10.8a12.2 12.2 0 0 1-7.34 3.29c-3.64.35-6.88-.63-9.68-3A12.37 12.37 0 0 1 .3 20.3c-.67-3.95.3-7.5 2.89-10.59 1.23-1.48 2.8-2.58 4.33-3.7 1.5-1.1 3.01-2.2 4.15-3.71.51-.68.92-1.42 1.29-2.27z" fill="#0678BE" fill-rule="nonzero" stroke="none" stroke-width="1" />
</svg>