<svg width="30" height="30" viewBox="0 0 30 30" xmlns="http://www.w3.org/2000/svg"><desc>Github icon</desc><path d="M15 0a15 15 0 0 0-4.74 29.23c.75.14 1.02-.32 1.02-.72l-.02-2.55c-4.17.9-5.05-2.01-5.05-2.01-.68-1.73-1.67-2.2-1.67-2.2-1.36-.93.1-.9.1-.9 1.51.1 2.3 1.54 2.3 1.54 1.34 2.3 3.51 1.63 4.37 1.25a3.2 3.2 0 0 1 .95-2.01c-3.33-.38-6.83-1.67-6.83-7.41a5.8 5.8 0 0 1 1.54-4.03 5.4 5.4 0 0 1 .15-3.97s1.26-.4 4.13 1.54a14.36 14.36 0 0 1 7.5 0c2.87-1.94 4.13-1.54 4.13-1.54a5.4 5.4 0 0 1 .15 3.97 5.78 5.78 0 0 1 1.54 4.03c0 5.76-3.5 7.03-6.85 7.4.54.46 1.02 1.38 1.02 2.77l-.02 4.12c0 .4.27.87 1.03.72A15 15 0 0 0 15 0" fill="#333"/></svg>