<svg width="26" height="26" viewBox="0 0 26 26" xmlns="http://www.w3.org/2000/svg"><desc>Instagram Icon</desc><g fill="#f05b5b"><path d="M13 0C9.47 0 9.03.01 7.64.08a9.54 9.54 0 0 0-3.16.6c-.85.33-1.58.78-2.3 1.5a6.37 6.37 0 0 0-1.5 2.3 9.54 9.54 0 0 0-.6 3.16A92.2 92.2 0 0 0 0 13c0 3.53.01 3.97.08 5.36.06 1.38.28 2.33.6 3.16.33.85.78 1.58 1.5 2.3a6.37 6.37 0 0 0 2.3 1.5c.83.32 1.78.54 3.16.6C9.03 26 9.47 26 13 26c3.53 0 3.97-.01 5.36-.08a9.54 9.54 0 0 0 3.16-.6 6.37 6.37 0 0 0 2.3-1.5 6.37 6.37 0 0 0 1.5-2.3c.32-.83.54-1.78.6-3.16.07-1.39.08-1.83.08-5.36 0-3.53-.01-3.97-.08-5.36a9.54 9.54 0 0 0-.6-3.16 6.37 6.37 0 0 0-1.5-2.3 6.37 6.37 0 0 0-2.3-1.5 9.54 9.54 0 0 0-3.16-.6A92.12 92.12 0 0 0 13 0m0 2.34c3.47 0 3.88.02 5.25.08a7.2 7.2 0 0 1 2.42.45c.6.23 1.04.51 1.5.97.45.45.73.89.96 1.5.18.45.4 1.14.45 2.4.06 1.38.08 1.79.08 5.26 0 3.47-.02 3.88-.08 5.25a7.2 7.2 0 0 1-.45 2.42c-.23.6-.51 1.04-.97 1.5-.45.45-.89.73-1.5.96a7.2 7.2 0 0 1-2.4.45c-1.38.06-1.79.08-5.26.08-3.47 0-3.88-.02-5.25-.08a7.2 7.2 0 0 1-2.42-.45 4.03 4.03 0 0 1-1.5-.97 4.03 4.03 0 0 1-.96-1.5 7.2 7.2 0 0 1-.45-2.4A90.25 90.25 0 0 1 2.34 13c0-3.47.02-3.88.08-5.25a7.2 7.2 0 0 1 .45-2.42c.23-.6.51-1.04.97-1.5.45-.45.89-.73 1.5-.96a7.2 7.2 0 0 1 2.4-.45c1.38-.06 1.79-.08 5.26-.08"/><path d="M13 6a7 7 0 1 0 0 14 7 7 0 0 0 0-14m0 11.5a4.5 4.5 0 1 1 0-9 4.5 4.5 0 0 1 0 9M21.7 6.1a1.6 1.6 0 1 1-3.2 0 1.6 1.6 0 0 1 3.2 0"/></g></svg>