  <svg width="31px" height="24px" viewBox="0 0 31 24" version="1.1" xmlns="http://www.w3.org/2000/svg">
    <desc>Twitter Icon</desc>
    <path d="M30.23 2.84c-1.09.49-2.25.81-3.48.96A6.07 6.07 0 0 0 29.42.45c-1.17.7-2.47 1.2-3.85 1.47a6.04 6.04 0 0 0-10.31 5.52A17.15 17.15 0 0 1 2.79 1.1a6.06 6.06 0 0 0 1.88 8.08 5.9 5.9 0 0 1-2.75-.75v.07a6.06 6.06 0 0 0 4.85 5.94 6.1 6.1 0 0 1-2.73.1c.77 2.4 3 4.16 5.66 4.2a12.13 12.13 0 0 1-8.96 2.51A16.92 16.92 0 0 0 10 24c11.14 0 17.23-9.23 17.23-17.24 0-.26 0-.52-.02-.78 1.18-.86 2.2-1.92 3.02-3.14"
      fill="#1DA1F2" fill-rule="nonzero" stroke="none" stroke-width="1" />
  </svg>