<svg width="30" height="21" viewBox="0 0 30 21" xmlns="http://www.w3.org/2000/svg"><desc>YouTube Icon</desc><path d="M29.7 4.55s-.3-2.06-1.2-2.98C27.38.37 26.1.37 25.5.3 21.3 0 15 0 15 0S8.7 0 4.5.3c-.59.07-1.87.08-3 1.27C.6 2.48.3 4.55.3 4.55S0 6.98 0 9.41v2.17c0 2.43.3 4.86.3 4.86s.3 2.07 1.2 2.98c1.13 1.2 2.63 1.15 3.3 1.28 2.4.23 10.2.3 10.2.3s6.3-.01 10.5-.31c.59-.07 1.87-.08 3-1.27.9-.91 1.2-2.98 1.2-2.98s.3-2.43.3-4.86V9.41c0-2.43-.3-4.86-.3-4.86zm-17.8 9.9V6l8.1 4.23-8.1 4.2z" fill="#f05b5b"/></svg>